HIERARCHY
ROOT pelvis
{
	OFFSET 0.003123 -0.351407 0.012037
	CHANNELS 6 Xposition Yposition Zposition Zrotation Yrotation Xrotation 
	JOINT left_hip
	{
		OFFSET 0.058189 -0.092763 -0.026001
		CHANNELS 3 Zrotation Yrotation Xrotation
		JOINT left_knee
		{
			OFFSET 0.054695 -0.378753 -0.009396
			CHANNELS 3 Zrotation Yrotation Xrotation
			JOINT left_ankle
			{
				OFFSET -0.043453 -0.403059 -0.031876
				CHANNELS 3 Zrotation Yrotation Xrotation
				JOINT left_foot
				{
					OFFSET 0.047257 -0.057997 0.118216
					CHANNELS 3 Zrotation Yrotation Xrotation
					End Site
					{
						OFFSET 0.000000 0.000000 0.000000
					}
				}
			}
		}
	}
	JOINT right_hip
	{
		OFFSET -0.063267 -0.103908 -0.021250
		CHANNELS 3 Zrotation Yrotation Xrotation
		JOINT right_knee
		{
			OFFSET -0.044210 -0.362380 -0.016824
			CHANNELS 3 Zrotation Yrotation Xrotation
			JOINT right_ankle
			{
				OFFSET 0.015417 -0.410728 -0.020192
				CHANNELS 3 Zrotation Yrotation Xrotation
				JOINT right_foot
				{
					OFFSET -0.038812 -0.058328 0.119049
					CHANNELS 3 Zrotation Yrotation Xrotation
					End Site
					{
						OFFSET 0.000000 0.000000 0.000000
					}
				}
			}
		}
	}
	JOINT spine_1
	{
		OFFSET -0.002763 0.109891 -0.027618
		CHANNELS 3 Zrotation Yrotation Xrotation
		JOINT spine_2
		{
			OFFSET 0.009448 0.131853 -0.005940
			CHANNELS 3 Zrotation Yrotation Xrotation
			JOINT spine_3
			{
				OFFSET -0.011330 0.052235 0.028447
				CHANNELS 3 Zrotation Yrotation Xrotation
				JOINT neck
				{
					OFFSET -0.012164 0.165167 -0.031615
					CHANNELS 3 Zrotation Yrotation Xrotation
					JOINT head
					{
						OFFSET 0.024783 0.160452 0.020737
						CHANNELS 3 Zrotation Yrotation Xrotation
						End Site
						{
							OFFSET 0.000000 0.000000 0.000000
						}
					}
				}
				JOINT left_collar
				{
					OFFSET 0.046364 0.084944 -0.007220
					CHANNELS 3 Zrotation Yrotation Xrotation
					JOINT left_shoulder
					{
						OFFSET 0.119239 0.057728 -0.015461
						CHANNELS 3 Zrotation Yrotation Xrotation
						JOINT left_elbow
						{
							OFFSET 0.254123 -0.072151 -0.042459
							CHANNELS 3 Zrotation Yrotation Xrotation
							JOINT left_wrist
							{
								OFFSET 0.251987 0.023221 -0.002472
								CHANNELS 3 Zrotation Yrotation Xrotation
								JOINT left_index_1
								{
									OFFSET 0.101902 -0.008688 0.019351
									CHANNELS 3 Zrotation Yrotation Xrotation
									JOINT left_index_2
									{
										OFFSET 0.030149 -0.011154 0.001151
										CHANNELS 3 Zrotation Yrotation Xrotation
										JOINT left_index_3
										{
											OFFSET 0.006504 -0.021577 -0.002433
											CHANNELS 3 Zrotation Yrotation Xrotation
											End Site
											{
												OFFSET 0.000000 0.000000 0.000000
											}
										}
									}
								}
								JOINT left_middle_1
								{
									OFFSET 0.109398 -0.006328 -0.003981
									CHANNELS 3 Zrotation Yrotation Xrotation
									JOINT left_middle_2
									{
										OFFSET 0.026472 -0.015218 -0.004641
										CHANNELS 3 Zrotation Yrotation Xrotation
										JOINT left_middle_3
										{
											OFFSET 0.005022 -0.023347 -0.001911
											CHANNELS 3 Zrotation Yrotation Xrotation
											End Site
											{
												OFFSET 0.000000 0.000000 0.000000
											}
										}
									}
								}
								JOINT left_pinky_1
								{
									OFFSET 0.084047 -0.014539 -0.043750
									CHANNELS 3 Zrotation Yrotation Xrotation
									JOINT left_pinky_2
									{
										OFFSET 0.012124 -0.014448 -0.005375
										CHANNELS 3 Zrotation Yrotation Xrotation
										JOINT left_pinky_3
										{
											OFFSET 0.003798 -0.018853 0.000167
											CHANNELS 3 Zrotation Yrotation Xrotation
											End Site
											{
												OFFSET 0.000000 0.000000 0.000000
											}
										}
									}
								}
								JOINT left_ring_1
								{
									OFFSET 0.097444 -0.009268 -0.027345
									CHANNELS 3 Zrotation Yrotation Xrotation
									JOINT left_ring_2
									{
										OFFSET 0.023561 -0.016057 -0.001895
										CHANNELS 3 Zrotation Yrotation Xrotation
										JOINT left_ring_3
										{
											OFFSET 0.004257 -0.023548 0.000814
											CHANNELS 3 Zrotation Yrotation Xrotation
											End Site
											{
												OFFSET 0.000000 0.000000 0.000000
											}
										}
									}
								}
								JOINT left_thumb_1
								{
									OFFSET 0.040636 -0.017977 0.025611
									CHANNELS 3 Zrotation Yrotation Xrotation
									JOINT left_thumb_2
									{
										OFFSET 0.021637 -0.017639 0.011623
										CHANNELS 3 Zrotation Yrotation Xrotation
										JOINT left_thumb_3
										{
											OFFSET 0.024002 -0.008356 0.006548
											CHANNELS 3 Zrotation Yrotation Xrotation
											End Site
											{
												OFFSET 0.000000 0.000000 0.000000
											}
										}
									}
								}
							}
						}
					}
				}
				JOINT right_collar
				{
					OFFSET -0.047695 0.084339 -0.013400
					CHANNELS 3 Zrotation Yrotation Xrotation
					JOINT right_shoulder
					{
						OFFSET -0.102578 0.053524 -0.012669
						CHANNELS 3 Zrotation Yrotation Xrotation
						JOINT right_elbow
						{
							OFFSET -0.271150 -0.036492 -0.026467
							CHANNELS 3 Zrotation Yrotation Xrotation
							JOINT right_wrist
							{
								OFFSET -0.249267 -0.004533 -0.015325
								CHANNELS 3 Zrotation Yrotation Xrotation
								JOINT right_index_1
								{
									OFFSET -0.099881 -0.011783 0.019600
									CHANNELS 3 Zrotation Yrotation Xrotation
									JOINT right_index_2
									{
										OFFSET -0.030148 -0.011154 0.001151
										CHANNELS 3 Zrotation Yrotation Xrotation
										JOINT right_index_3
										{
											OFFSET -0.006505 -0.021577 -0.002432
											CHANNELS 3 Zrotation Yrotation Xrotation
											End Site
											{
												OFFSET 0.000000 0.000000 0.000000
											}
										}
									}
								}
								JOINT right_middle_1
								{
									OFFSET -0.107376 -0.009422 -0.003734
									CHANNELS 3 Zrotation Yrotation Xrotation
									JOINT right_middle_2
									{
										OFFSET -0.026472 -0.015218 -0.004641
										CHANNELS 3 Zrotation Yrotation Xrotation
										JOINT right_middle_3
										{
											OFFSET -0.005022 -0.023347 -0.001911
											CHANNELS 3 Zrotation Yrotation Xrotation
											End Site
											{
												OFFSET 0.000000 0.000000 0.000000
											}
										}
									}
								}
								JOINT right_pinky_1
								{
									OFFSET -0.082027 -0.017634 -0.043503
									CHANNELS 3 Zrotation Yrotation Xrotation
									JOINT right_pinky_2
									{
										OFFSET -0.012123 -0.014448 -0.005374
										CHANNELS 3 Zrotation Yrotation Xrotation
										JOINT right_pinky_3
										{
											OFFSET -0.003798 -0.018852 0.000167
											CHANNELS 3 Zrotation Yrotation Xrotation
											End Site
											{
												OFFSET 0.000000 0.000000 0.000000
											}
										}
									}
								}
								JOINT right_ring_1
								{
									OFFSET -0.095423 -0.012362 -0.027099
									CHANNELS 3 Zrotation Yrotation Xrotation
									JOINT right_ring_2
									{
										OFFSET -0.023561 -0.016057 -0.001895
										CHANNELS 3 Zrotation Yrotation Xrotation
										JOINT right_ring_3
										{
											OFFSET -0.004257 -0.023548 0.000816
											CHANNELS 3 Zrotation Yrotation Xrotation
											End Site
											{
												OFFSET 0.000000 0.000000 0.000000
											}
										}
									}
								}
								JOINT right_thumb_1
								{
									OFFSET -0.038613 -0.021074 0.025861
									CHANNELS 3 Zrotation Yrotation Xrotation
									JOINT right_thumb_2
									{
										OFFSET -0.021636 -0.017639 0.011623
										CHANNELS 3 Zrotation Yrotation Xrotation
										JOINT right_thumb_3
										{
											OFFSET -0.024004 -0.008353 0.006547
											CHANNELS 3 Zrotation Yrotation Xrotation
											End Site
											{
												OFFSET 0.000000 0.000000 0.000000
											}
										}
									}
								}
							}
						}
					}
				}
			}
		}
	}
}
MOTION
Frames: 7
Frame Time: 0.050000
-0.445648 1.052631 1.435303 -17.134020 -40.338841 18.365298 -5.599612 -0.239823 -27.089157 25.538887 -2.775312 6.199143 -37.396393 43.168805 89.469801 0.000000 0.000000 0.000000 38.242573 3.727635 -0.353019 -17.851950 0.162539 -9.328402 -1.038191 -10.331738 96.695649 0.000000 0.000000 0.000000 3.932617 -2.151194 28.271995 7.258132 10.144133 -102.827358 -84.270828 -14.628274 89.509367 30.156449 6.874985 16.091987 0.000000 0.000000 0.000000 16.233637 -33.518353 84.328928 108.914359 -67.367733 -85.136904 -1.785133 3.101895 -0.009243 12.628686 -4.834580 -47.678008 3.304750 -3.743081 -0.405795 -11.814766 -30.959313 -23.205490 0.000000 0.000000 0.000000 -32.029353 -32.948045 -0.766609 -25.332006 -35.480101 -47.974344 0.000000 0.000000 0.000000 -2.289342 -26.110040 -25.374273 -4.991403 -1.549578 -3.680937 0.000000 0.000000 0.000000 -28.623501 -36.669434 -5.027544 -10.742432 -29.555156 -48.543089 0.000000 0.000000 0.000000 38.396147 9.796273 -6.015606 -23.002619 2.629692 9.009320 0.000000 0.000000 0.000000 -8.536531 -16.205973 -56.373670 25.002951 -25.166374 -12.922905 45.078368 15.749824 -4.476215 6.131755 -4.565473 41.370490 50.493863 -23.235186 -10.721745 45.688399 -11.854557 4.545567 0.000000 0.000000 0.000000 53.376918 -1.098674 -13.979938 57.125673 59.803521 -40.412017 0.000000 0.000000 0.000000 -35.398634 16.550779 -11.573303 -138.604747 -32.743721 -37.131425 0.000000 0.000000 0.000000 29.657169 8.423956 -3.616799 -61.470594 11.216281 -155.548933 0.000000 0.000000 0.000000 -0.052775 -24.838320 18.036676 8.476768 5.953596 0.875373 0.000000 0.000000 0.000000 
-0.449417 1.053276 1.435303 -16.463381 -41.112289 17.199579 -6.086902 -0.425406 -26.073702 25.484632 -2.744291 6.205818 -36.210884 43.998663 89.857972 0.000000 0.000000 0.000000 37.991647 3.413591 0.330751 -18.400418 0.262950 -8.760173 -0.725478 -10.013174 96.727944 0.000000 0.000000 0.000000 2.470618 -1.617291 29.808869 8.949607 8.660574 -98.275077 -81.827408 -21.686410 88.769141 29.169465 6.964419 16.672624 0.000000 0.000000 0.000000 18.449578 -34.030338 90.661614 113.686968 -59.347648 -79.733558 -2.374184 5.813883 -0.362513 14.843756 -1.433252 -51.008919 5.314048 -3.077220 -0.179835 11.859057 -38.639567 -44.069388 0.000000 0.000000 0.000000 -32.607904 -40.173069 0.548604 -2.867761 -38.496983 -73.183464 0.000000 0.000000 0.000000 -3.619128 -29.334401 -27.006440 5.949555 -2.905017 -8.274963 0.000000 0.000000 0.000000 -29.252290 -42.820155 -4.815319 -7.926128 -24.574721 -46.304282 0.000000 0.000000 0.000000 44.144117 11.541406 -4.507365 -30.457251 -3.006797 10.334676 0.000000 0.000000 0.000000 -10.495653 -17.876106 -60.167346 25.266227 -31.945202 -15.195192 47.877594 9.226857 -6.818191 5.012637 -6.964140 45.831679 50.981737 -26.248196 -11.931043 41.451979 -13.545252 6.699721 0.000000 0.000000 0.000000 54.204460 -4.023461 -14.509461 65.656768 52.689064 -31.693231 0.000000 0.000000 0.000000 -49.958496 15.566244 -14.943677 -130.651960 -30.594424 -37.675030 0.000000 0.000000 0.000000 33.513979 6.608160 -3.424122 -60.424805 12.219656 -156.151268 0.000000 0.000000 0.000000 -1.285329 -27.414763 19.821351 8.362333 7.936560 0.148928 0.000000 0.000000 0.000000 
-0.453186 1.053276 1.435303 -12.747009 -34.631526 15.493033 -9.575971 -1.878056 -27.289046 26.648317 -2.829093 5.565634 -31.134127 42.151347 93.666646 0.000000 0.000000 0.000000 37.179546 3.836429 -2.838546 -19.344327 0.185583 -8.293719 1.840238 -11.735838 97.831014 0.000000 0.000000 0.000000 2.779811 -1.881765 29.096789 4.081166 3.606275 -102.476362 -73.559170 -18.221444 92.459273 34.920253 8.369643 9.716045 0.000000 0.000000 0.000000 44.203739 -46.562556 92.155945 121.629519 -43.930357 -50.576363 -2.473742 15.936030 -2.698672 17.488277 2.347653 -54.803703 18.635790 2.381466 2.793024 73.473656 -29.695429 -91.677419 0.000000 0.000000 0.000000 -15.069648 -54.465679 -7.205836 0.740136 -35.249541 -91.447754 0.000000 0.000000 0.000000 9.337393 -42.538017 -43.425351 14.568360 -0.784325 -2.779601 0.000000 0.000000 0.000000 -18.218169 -53.669572 -12.373283 10.265271 -10.944320 -41.281526 0.000000 0.000000 0.000000 68.583480 16.082349 6.858564 -40.971884 -11.744755 13.841642 0.000000 0.000000 0.000000 -15.919489 -33.755796 -71.654373 14.901920 -50.097202 -12.033676 49.039428 -6.771211 -10.768916 0.559783 -10.291855 51.432675 49.061529 -34.917997 -12.444921 19.420293 -11.906799 11.313941 0.000000 0.000000 0.000000 49.036711 -13.222160 -12.320855 62.253786 53.751281 -38.175201 0.000000 0.000000 0.000000 -74.559526 11.334842 -21.393256 -91.820891 -17.285237 -37.506929 0.000000 0.000000 0.000000 11.044536 5.131478 -2.417722 -48.634272 11.739586 -150.545937 0.000000 0.000000 0.000000 -1.168464 -36.754475 25.266002 4.883315 10.468601 -2.235348 0.000000 0.000000 0.000000 
-0.456955 1.053276 1.435303 -9.594672 -26.765710 13.370760 -12.737265 -3.425112 -26.652447 27.170665 -2.798299 4.376581 -25.734970 40.047099 97.405912 0.000000 0.000000 0.000000 36.767669 4.237876 -5.784178 -20.999553 0.271105 -6.841879 5.198289 -14.013939 98.363368 0.000000 0.000000 0.000000 2.844510 -1.868512 32.168445 1.247321 -1.209618 -107.390715 -64.522392 -19.799108 92.974173 31.605602 5.643818 2.502933 0.000000 0.000000 0.000000 65.200127 -54.196745 77.076615 120.057215 -38.187282 -35.638085 -3.011407 18.269224 -3.416102 20.828605 2.737182 -52.864859 24.435058 4.545735 4.851172 72.777649 -23.276970 -85.251613 0.000000 0.000000 0.000000 1.366563 -52.221465 -16.117623 -6.081921 -39.294992 -100.685166 0.000000 0.000000 0.000000 18.247267 -43.959034 -51.069878 17.201901 -0.342182 -0.460311 0.000000 0.000000 0.000000 -5.255038 -55.300693 -21.627716 16.092010 -6.893160 -40.580840 0.000000 0.000000 0.000000 74.661594 19.030720 15.295502 -39.142770 -15.637400 12.371432 0.000000 0.000000 0.000000 -26.685392 -49.820218 -67.522308 1.074602 -59.710937 -3.970733 47.423962 -16.670781 -13.091312 -3.827976 -12.008105 55.081268 45.969902 -39.289193 -12.110819 5.592292 -9.301809 13.294157 0.000000 0.000000 0.000000 42.863792 -16.293211 -9.850461 66.276696 46.041586 -37.040403 0.000000 0.000000 0.000000 -82.201143 9.201818 -27.802190 -68.242091 -7.880968 -31.123544 0.000000 0.000000 0.000000 -10.590632 7.811997 -5.296057 -38.034810 7.797567 -140.682021 0.000000 0.000000 0.000000 -5.984492 -39.261501 28.581771 7.103540 10.521834 -1.152146 0.000000 0.000000 0.000000 
-0.460724 1.053276 1.440582 -6.419431 -19.416506 12.029191 -16.957825 -4.850018 -25.510116 28.363397 -2.658191 2.975502 -21.164159 37.557966 99.979455 0.000000 0.000000 0.000000 34.915744 4.005341 -7.962854 -21.804139 0.144108 -6.608260 8.016358 -16.151891 98.624531 0.000000 0.000000 0.000000 3.276248 -2.356820 30.302886 3.131190 -5.329147 -108.499101 -73.425687 -17.350097 94.557629 33.536017 6.076912 6.074563 0.000000 0.000000 0.000000 54.604861 -54.389929 81.164750 119.507363 -41.808580 -48.670509 -1.462836 14.494407 -2.317400 17.712631 0.604460 -56.675245 18.128540 0.128337 1.881745 67.179868 -28.550768 -82.608582 0.000000 0.000000 0.000000 -7.244931 -45.474278 -11.218043 -5.432027 -40.549440 -83.222305 0.000000 0.000000 0.000000 6.240947 -39.419401 -39.892074 13.291027 -0.907076 -3.395761 0.000000 0.000000 0.000000 -10.285844 -52.050063 -17.500928 0.576867 -15.407940 -43.147752 0.000000 0.000000 0.000000 66.191895 16.602144 6.173845 -39.070284 -10.229486 12.972226 0.000000 0.000000 0.000000 -19.019828 -45.339801 -69.625736 2.700043 -60.952580 -4.703137 45.622244 -15.494127 -12.025743 -3.973499 -12.174542 55.743751 47.892409 -41.848492 -13.799413 9.610839 -6.179566 8.454385 0.000000 0.000000 0.000000 43.249792 -14.862097 -9.927634 73.694100 41.281831 -29.473450 0.000000 0.000000 0.000000 -84.358627 7.154980 -24.285588 -68.758528 -10.018898 -37.565985 0.000000 0.000000 0.000000 -3.586234 -1.456822 -2.154755 -40.266180 19.099147 -147.898643 0.000000 0.000000 0.000000 -5.481076 -40.336158 28.979121 7.643910 9.521859 -0.577188 0.000000 0.000000 0.000000 
-0.462608 1.053276 1.440582 -1.227293 -1.859563 11.743075 -24.170777 -7.586335 -23.269834 28.896394 -2.418799 0.273388 -10.268561 31.477223 103.287458 0.000000 0.000000 0.000000 30.966357 4.579956 -14.653521 -23.618710 0.171110 -4.332709 16.099980 -21.004041 97.247331 0.000000 0.000000 0.000000 5.457415 -2.955400 25.964010 -3.961301 -19.518070 -105.720228 -54.042618 -17.470508 96.171939 40.621881 11.489611 -6.912396 0.000000 0.000000 0.000000 110.922112 -52.398100 45.731674 113.942348 -28.667755 -11.283473 -4.052902 21.273952 -4.020626 23.547890 6.324622 -41.658610 30.689442 13.917843 11.666568 85.649586 -6.416197 -46.912960 0.000000 0.000000 0.000000 22.354446 -41.281302 -22.099371 5.825413 -40.865968 -132.645874 0.000000 0.000000 0.000000 37.134906 -42.529069 -65.241714 23.371615 -0.185785 0.261476 0.000000 0.000000 0.000000 25.954563 -53.904766 -42.868128 23.139340 -1.711640 -38.989454 0.000000 0.000000 0.000000 80.031381 24.096059 29.225936 -31.945591 -18.008049 7.801491 0.000000 0.000000 0.000000 -52.608346 -69.293323 -48.824712 -49.495871 -59.611927 35.176523 37.255127 -29.248381 -12.194289 -9.357463 -10.900396 54.883877 35.442955 -49.246518 -7.528358 -9.827736 -3.573998 11.952263 0.000000 0.000000 0.000000 28.251400 -16.129301 -3.490731 73.467818 32.446596 -32.293403 0.000000 0.000000 0.000000 -87.562495 7.641289 -41.650362 -40.153447 -0.491321 -18.540446 0.000000 0.000000 0.000000 -34.478931 10.436834 -13.279837 -22.787648 11.879197 -116.040892 0.000000 0.000000 0.000000 -17.030554 -46.323416 38.502997 7.628703 13.911691 -1.983058 0.000000 0.000000 0.000000 
-0.466377 1.053276 1.440582 -3.932465 -9.035834 11.991852 -20.445302 -6.467793 -24.780862 29.044022 -2.561713 1.434089 -13.638594 34.243746 102.833982 0.000000 0.000000 0.000000 33.756652 4.912719 -12.684454 -23.052402 0.380276 -4.303175 12.942614 -18.932425 97.736092 0.000000 0.000000 0.000000 6.664916 -3.146774 26.487375 -3.556438 -15.056877 -105.985592 -56.782953 -17.818624 95.285095 38.631255 10.454303 -4.717635 0.000000 0.000000 0.000000 104.496387 -52.690310 54.921526 114.751165 -27.665064 -6.515031 -5.700447 22.942385 -4.888646 22.966471 6.442585 -38.752469 31.063738 15.935147 12.786795 95.077958 -6.865180 -30.566696 0.000000 0.000000 0.000000 29.731009 -38.902552 -22.678773 -134.868691 -22.594834 -35.588762 0.000000 0.000000 0.000000 43.321815 -43.187689 -71.518991 27.093846 -0.413283 2.086061 0.000000 0.000000 0.000000 35.366572 -52.904447 -48.899194 19.283725 -2.279661 -40.023345 0.000000 0.000000 0.000000 83.537496 24.846652 35.738988 -32.243721 -22.703939 7.671098 0.000000 0.000000 0.000000 -46.907802 -66.743846 -58.127664 -61.045368 -59.388712 42.939076 31.050476 -31.022414 -10.575732 -10.860486 -10.121718 55.127832 32.063702 -53.071286 -6.125384 -13.277228 -4.741630 17.440769 0.000000 0.000000 0.000000 26.045604 -27.735553 -1.624090 76.813136 30.369929 -28.528938 0.000000 0.000000 0.000000 -91.384278 5.548860 -45.231964 -36.535980 0.276117 -17.517423 0.000000 0.000000 0.000000 -45.131992 6.581149 -14.699505 -20.632392 18.543464 -116.782459 0.000000 0.000000 0.000000 -25.849798 -51.353645 46.174644 8.559935 18.345425 -3.247776 0.000000 0.000000 0.000000 
